# xmcd
# 
# Track frame offsets:
#     150
#     18492
#     35660
#     53558
#     71668
#     86671
#     109962
#     128637
#     149288
#     162667
#     178458
#     198719
#     219051
#     236736
# 
# Disc length: 3379
# 
# Revision: 9
# Processed by: cddbd v1.5.2PL0 Copyright (c) Steve Scherf et al.
# Submitted via: fre:ac v1.1beta2
# 
DISCID=d20d310e
DTITLE=Tim McGraw - Set This Circus Down
DYEAR=2001
DGENRE=Country
TTITLE0=The Cowboy In Me
TTITLE1=Telluride
TTITLE2=You Get Used To Somebody
TTITLE3=Unbroken
TTITLE4=Things Change
TTITLE5=Angel Boy
TTITLE6=Forget About Us
TTITLE7=Take Me Away From Here
TTITLE8=Smilin'
TTITLE9=Set This Circus Down
TTITLE10=Angry All The Time
TTITLE11=Let Me Love You
TTITLE12=Grown Men Don't Cry
TTITLE13=Why We Said Goodbye
EXTD=Tim McGraw- Set This Circus Down \nJohnny Combs
EXTT0=
EXTT1=
EXTT2=
EXTT3=
EXTT4=
EXTT5=
EXTT6=
EXTT7=
EXTT8=
EXTT9=
EXTT10=
EXTT11=
EXTT12=
EXTT13=
PLAYORDER=
